<svg id="visual" viewBox="0 0 900 600" width="900" height="600" xmlns="http://www.w3.org/2000/svg" xmlns:xlink="http://www.w3.org/1999/xlink" version="1.1"><rect x="0" y="0" width="900" height="600" fill="#0066FF"></rect><g transform="translate(483.6128206575693 296.25439450066665)"><path d="M162.4 -310.9C186.7 -267.1 166.4 -175.8 196.3 -116C226.1 -56.3 306.1 -28.1 328.2 12.8C350.3 53.7 314.6 107.3 287.7 172.3C260.9 237.2 243 313.5 196.5 340.5C150 367.5 75 345.2 14.6 320C-45.8 294.7 -91.7 266.4 -155.2 249.3C-218.7 232.1 -299.9 226.1 -349 186.4C-398 146.7 -415 73.3 -392.6 12.9C-370.3 -47.5 -308.5 -95 -260 -135.6C-211.4 -176.1 -175.9 -209.7 -134.8 -243.8C-93.7 -277.9 -46.8 -312.5 11.1 -331.6C69 -350.8 138 -354.7 162.4 -310.9" fill="#4FACF7"></path></g></svg>