<svg id="visual" viewBox="0 0 900 600" width="900" height="600" xmlns="http://www.w3.org/2000/svg" xmlns:xlink="http://www.w3.org/1999/xlink" version="1.1"><rect x="0" y="0" width="900" height="600" fill="#e81616"></rect><path d="M0 402L75 402L75 544L150 544L150 381L225 381L225 562L300 562L300 449L375 449L375 421L450 421L450 333L525 333L525 452L600 452L600 402L675 402L675 458L750 458L750 550L825 550L825 566L900 566L900 545L900 0L900 0L825 0L825 0L750 0L750 0L675 0L675 0L600 0L600 0L525 0L525 0L450 0L450 0L375 0L375 0L300 0L300 0L225 0L225 0L150 0L150 0L75 0L75 0L0 0Z" fill="#93001d"></path><path d="M0 297L75 297L75 369L150 369L150 367L225 367L225 437L300 437L300 468L375 468L375 460L450 460L450 314L525 314L525 299L600 299L600 437L675 437L675 331L750 331L750 452L825 452L825 317L900 317L900 248L900 0L900 0L825 0L825 0L750 0L750 0L675 0L675 0L600 0L600 0L525 0L525 0L450 0L450 0L375 0L375 0L300 0L300 0L225 0L225 0L150 0L150 0L75 0L75 0L0 0Z" fill="#cd1f2b"></path><path d="M0 308L75 308L75 201L150 201L150 265L225 265L225 355L300 355L300 181L375 181L375 370L450 370L450 212L525 212L525 284L600 284L600 288L675 288L675 298L750 298L750 317L825 317L825 363L900 363L900 192L900 0L900 0L825 0L825 0L750 0L750 0L675 0L675 0L600 0L600 0L525 0L525 0L450 0L450 0L375 0L375 0L300 0L300 0L225 0L225 0L150 0L150 0L75 0L75 0L0 0Z" fill="#e04d54"></path><path d="M0 169L75 169L75 241L150 241L150 128L225 128L225 182L300 182L300 177L375 177L375 119L450 119L450 166L525 166L525 260L600 260L600 133L675 133L675 159L750 159L750 104L825 104L825 144L900 144L900 256L900 0L900 0L825 0L825 0L750 0L750 0L675 0L675 0L600 0L600 0L525 0L525 0L450 0L450 0L375 0L375 0L300 0L300 0L225 0L225 0L150 0L150 0L75 0L75 0L0 0Z" fill="#cd1f2b"></path><path d="M0 79L75 79L75 84L150 84L150 137L225 137L225 139L300 139L300 19L375 19L375 158L450 158L450 36L525 36L525 131L600 131L600 21L675 21L675 42L750 42L750 148L825 148L825 20L900 20L900 162L900 0L900 0L825 0L825 0L750 0L750 0L675 0L675 0L600 0L600 0L525 0L525 0L450 0L450 0L375 0L375 0L300 0L300 0L225 0L225 0L150 0L150 0L75 0L75 0L0 0Z" fill="#93001d"></path></svg>