<svg id="visual" viewBox="0 0 900 600" width="900" height="600" xmlns="http://www.w3.org/2000/svg" xmlns:xlink="http://www.w3.org/1999/xlink" version="1.1"><rect x="0" y="0" width="900" height="600" fill="#140021"></rect><path d="M0 316L75 316L75 264L150 264L150 313L225 313L225 507L300 507L300 459L375 459L375 486L450 486L450 397L525 397L525 501L600 501L600 249L675 249L675 497L750 497L750 427L825 427L825 256L900 256L900 261L900 0L900 0L825 0L825 0L750 0L750 0L675 0L675 0L600 0L600 0L525 0L525 0L450 0L450 0L375 0L375 0L300 0L300 0L225 0L225 0L150 0L150 0L75 0L75 0L0 0Z" fill="#560090"></path><path d="M0 194L75 194L75 285L150 285L150 386L225 386L225 303L300 303L300 353L375 353L375 239L450 239L450 358L525 358L525 202L600 202L600 452L675 452L675 292L750 292L750 217L825 217L825 150L900 150L900 278L900 0L900 0L825 0L825 0L750 0L750 0L675 0L675 0L600 0L600 0L525 0L525 0L450 0L450 0L375 0L375 0L300 0L300 0L225 0L225 0L150 0L150 0L75 0L75 0L0 0Z" fill="#7f00d4"></path><path d="M0 215L75 215L75 111L150 111L150 158L225 158L225 274L300 274L300 265L375 265L375 213L450 213L450 303L525 303L525 145L600 145L600 159L675 159L675 232L750 232L750 242L825 242L825 138L900 138L900 245L900 0L900 0L825 0L825 0L750 0L750 0L675 0L675 0L600 0L600 0L525 0L525 0L450 0L450 0L375 0L375 0L300 0L300 0L225 0L225 0L150 0L150 0L75 0L75 0L0 0Z" fill="#9900ff"></path><path d="M0 107L75 107L75 78L150 78L150 141L225 141L225 157L300 157L300 153L375 153L375 75L450 75L450 263L525 263L525 128L600 128L600 85L675 85L675 226L750 226L750 209L825 209L825 254L900 254L900 239L900 0L900 0L825 0L825 0L750 0L750 0L675 0L675 0L600 0L600 0L525 0L525 0L450 0L450 0L375 0L375 0L300 0L300 0L225 0L225 0L150 0L150 0L75 0L75 0L0 0Z" fill="#7f00d4"></path><path d="M0 94L75 94L75 149L150 149L150 49L225 49L225 47L300 47L300 157L375 157L375 30L450 30L450 133L525 133L525 103L600 103L600 69L675 69L675 83L750 83L750 154L825 154L825 125L900 125L900 150L900 0L900 0L825 0L825 0L750 0L750 0L675 0L675 0L600 0L600 0L525 0L525 0L450 0L450 0L375 0L375 0L300 0L300 0L225 0L225 0L150 0L150 0L75 0L75 0L0 0Z" fill="#560090"></path></svg>