<svg id="visual" viewBox="0 0 900 600" width="900" height="600" xmlns="http://www.w3.org/2000/svg" xmlns:xlink="http://www.w3.org/1999/xlink" version="1.1"><rect x="0" y="0" width="900" height="600" fill="#081c2b"></rect><defs><linearGradient id="grad1_0" x1="33.3%" y1="0%" x2="100%" y2="100%"><stop offset="20%" stop-color="#081c2b" stop-opacity="1"></stop><stop offset="80%" stop-color="#081c2b" stop-opacity="1"></stop></linearGradient></defs><defs><linearGradient id="grad2_0" x1="0%" y1="0%" x2="66.7%" y2="100%"><stop offset="20%" stop-color="#081c2b" stop-opacity="1"></stop><stop offset="80%" stop-color="#081c2b" stop-opacity="1"></stop></linearGradient></defs><g transform="translate(900, 0)"><path d="M0 459.7C-17.5 415 -35 370.2 -50.5 351.4C-66 332.6 -79.6 339.6 -106.8 363.6C-134 387.6 -174.8 428.6 -191 418.2C-207.1 407.8 -198.7 346.1 -203.3 316.3C-207.9 286.5 -225.6 288.7 -254.7 294C-283.9 299.2 -324.4 307.6 -337.1 292.1C-349.7 276.5 -334.5 237.1 -324.7 208.7C-315 180.2 -310.7 162.8 -328.4 150C-346.1 137.2 -385.8 129 -380 111.6C-374.2 94.1 -322.9 67.4 -328.6 47.2C-334.3 27.1 -397 13.6 -459.7 0L0 0Z" fill="#FF0066"></path></g><g transform="translate(0, 600)"><path d="M0 -459.7C19.3 -422.5 38.5 -385.3 50.7 -352.4C62.8 -319.5 67.8 -290.9 87.3 -297.4C106.9 -304 141 -345.7 158.3 -346.6C175.5 -347.5 175.8 -307.5 183.3 -285.2C190.8 -262.8 205.4 -258.1 218.1 -251.7C230.7 -245.2 241.4 -237.1 276.6 -239.7C311.8 -242.3 371.7 -255.5 360.1 -231.4C348.4 -207.3 265.4 -145.7 279.3 -127.5C293.1 -109.4 403.9 -134.6 441.1 -129.5C478.2 -124.4 441.7 -88.8 432.6 -62.2C423.4 -35.5 441.5 -17.8 459.7 0L0 0Z" fill="#FF0066"></path></g></svg>