<svg id="visual" viewBox="0 0 900 600" width="900" height="600" xmlns="http://www.w3.org/2000/svg" xmlns:xlink="http://www.w3.org/1999/xlink" version="1.1"><rect x="0" y="0" width="900" height="600" fill="#001220"></rect><defs><linearGradient id="grad1_0" x1="33.3%" y1="0%" x2="100%" y2="100%"><stop offset="20%" stop-color="#001220" stop-opacity="1"></stop><stop offset="80%" stop-color="#001220" stop-opacity="1"></stop></linearGradient></defs><defs><linearGradient id="grad2_0" x1="0%" y1="0%" x2="66.7%" y2="100%"><stop offset="20%" stop-color="#001220" stop-opacity="1"></stop><stop offset="80%" stop-color="#001220" stop-opacity="1"></stop></linearGradient></defs><g transform="translate(900, 0)"><path d="M0 486.7C-63.9 480 -127.8 473.3 -186.3 449.7C-244.7 426.1 -297.7 385.7 -338 338C-378.3 290.2 -406 235.1 -428.7 177.6C-451.4 120 -469.1 60 -486.7 0L0 0Z" fill="#15ff00"></path></g><g transform="translate(0, 600)"><path d="M0 -486.7C65.1 -482.6 130.3 -478.5 186.3 -449.7C242.3 -420.9 289.1 -367.3 312.5 -312.5C336 -257.8 336.1 -201.9 361.2 -149.6C386.4 -97.3 436.6 -48.7 486.7 0L0 0Z" fill="#15ff00"></path></g></svg>