<svg id="visual" viewBox="0 0 900 600" width="900" height="600" xmlns="http://www.w3.org/2000/svg" xmlns:xlink="http://www.w3.org/1999/xlink" version="1.1"><rect x="0" y="0" width="900" height="600" fill="#002233"></rect><path d="M367 0L330.8 8.3C294.7 16.7 222.3 33.3 198.8 50C175.3 66.7 200.7 83.3 212.2 100C223.7 116.7 221.3 133.3 209.7 150C198 166.7 177 183.3 168.8 200C160.7 216.7 165.3 233.3 200.3 250C235.3 266.7 300.7 283.3 327.8 300C355 316.7 344 333.3 313.2 350C282.3 366.7 231.7 383.3 203.8 400C176 416.7 171 433.3 184.2 450C197.3 466.7 228.7 483.3 243.7 500C258.7 516.7 257.3 533.3 277.3 550C297.3 566.7 338.7 583.3 359.3 591.7L380 600L0 600L0 591.7C0 583.3 0 566.7 0 550C0 533.3 0 516.7 0 500C0 483.3 0 466.7 0 450C0 433.3 0 416.7 0 400C0 383.3 0 366.7 0 350C0 333.3 0 316.7 0 300C0 283.3 0 266.7 0 250C0 233.3 0 216.7 0 200C0 183.3 0 166.7 0 150C0 133.3 0 116.7 0 100C0 83.3 0 66.7 0 50C0 33.3 0 16.7 0 8.3L0 0Z" fill="#0066FF" stroke-linecap="round" stroke-linejoin="miter"></path></svg>