<svg id="visual" viewBox="0 0 900 600" width="900" height="600" xmlns="http://www.w3.org/2000/svg" xmlns:xlink="http://www.w3.org/1999/xlink" version="1.1"><rect x="0" y="0" width="900" height="600" fill="#001122"></rect><path d="M204 0L214.8 5.5C225.7 11 247.3 22 245.8 33.2C244.3 44.3 219.7 55.7 219 66.8C218.3 78 241.7 89 251.5 100C261.3 111 257.7 122 253.2 133.2C248.7 144.3 243.3 155.7 243.8 166.8C244.3 178 250.7 189 253.2 200C255.7 211 254.3 222 243.7 233.2C233 244.3 213 255.7 205 266.8C197 278 201 289 200.8 300C200.7 311 196.3 322 199.8 333.2C203.3 344.3 214.7 355.7 225.5 366.8C236.3 378 246.7 389 247.7 400C248.7 411 240.3 422 241.5 433.2C242.7 444.3 253.3 455.7 255.8 466.8C258.3 478 252.7 489 252 500C251.3 511 255.7 522 246.7 533.2C237.7 544.3 215.3 555.7 209.8 566.8C204.3 578 215.7 589 221.3 594.5L227 600L0 600L0 594.5C0 589 0 578 0 566.8C0 555.7 0 544.3 0 533.2C0 522 0 511 0 500C0 489 0 478 0 466.8C0 455.7 0 444.3 0 433.2C0 422 0 411 0 400C0 389 0 378 0 366.8C0 355.7 0 344.3 0 333.2C0 322 0 311 0 300C0 289 0 278 0 266.8C0 255.7 0 244.3 0 233.2C0 222 0 211 0 200C0 189 0 178 0 166.8C0 155.7 0 144.3 0 133.2C0 122 0 111 0 100C0 89 0 78 0 66.8C0 55.7 0 44.3 0 33.2C0 22 0 11 0 5.5L0 0Z" fill="#ff004b" stroke-linecap="round" stroke-linejoin="miter"></path></svg>