<svg id="visual" viewBox="0 0 900 600" width="900" height="600" xmlns="http://www.w3.org/2000/svg" xmlns:xlink="http://www.w3.org/1999/xlink" version="1.1"><rect x="0" y="0" width="900" height="600" fill="#002233"></rect><path d="M201 0L191.5 14.3C182 28.7 163 57.3 180.8 85.8C198.7 114.3 253.3 142.7 250.7 171.2C248 199.7 188 228.3 173.7 257C159.3 285.7 190.7 314.3 209 343C227.3 371.7 232.7 400.3 248.5 428.8C264.3 457.3 290.7 485.7 288.3 514.2C286 542.7 255 571.3 239.5 585.7L224 600L0 600L0 585.7C0 571.3 0 542.7 0 514.2C0 485.7 0 457.3 0 428.8C0 400.3 0 371.7 0 343C0 314.3 0 285.7 0 257C0 228.3 0 199.7 0 171.2C0 142.7 0 114.3 0 85.8C0 57.3 0 28.7 0 14.3L0 0Z" fill="#0066FF" stroke-linecap="round" stroke-linejoin="miter"></path></svg>