<svg id="visual" viewBox="0 0 900 600" width="900" height="600" xmlns="http://www.w3.org/2000/svg" xmlns:xlink="http://www.w3.org/1999/xlink" version="1.1"><rect x="0" y="0" width="900" height="600" fill="#FF0066"></rect><g transform="translate(440.4461702042772 322.2118988107212)"><path d="M212.6 -324.1C275.3 -332.1 325.6 -274.6 325.4 -209.6C325.2 -144.7 274.6 -72.3 265.7 -5.2C256.7 62 289.4 124 269.6 154.3C249.8 184.6 177.4 183.2 123.7 206.9C70 230.6 35 279.3 -0.7 280.4C-36.3 281.6 -72.7 235.2 -101.8 197.4C-131 159.5 -153 130.3 -185.6 98.8C-218.3 67.3 -261.6 33.7 -285.6 -13.8C-309.6 -61.3 -314.1 -122.7 -291.8 -172C-269.5 -221.4 -220.2 -258.8 -167.1 -256.2C-114 -253.7 -57 -211.2 9 -226.8C75 -242.4 150 -316.1 212.6 -324.1" fill="#BB004B"></path></g></svg>