<svg id="visual" viewBox="0 0 900 600" width="900" height="600" xmlns="http://www.w3.org/2000/svg" xmlns:xlink="http://www.w3.org/1999/xlink" version="1.1"><path d="M0 43L10.7 45C21.3 47 42.7 51 64.2 60C85.7 69 107.3 83 128.8 80C150.3 77 171.7 57 193 54C214.3 51 235.7 65 257 69C278.3 73 299.7 67 321.2 63C342.7 59 364.3 57 385.8 64C407.3 71 428.7 87 450 93C471.3 99 492.7 95 514.2 93C535.7 91 557.3 91 578.8 85C600.3 79 621.7 67 643 64C664.3 61 685.7 67 707 73C728.3 79 749.7 85 771.2 88C792.7 91 814.3 91 835.8 92C857.3 93 878.7 95 889.3 96L900 97L900 0L889.3 0C878.7 0 857.3 0 835.8 0C814.3 0 792.7 0 771.2 0C749.7 0 728.3 0 707 0C685.7 0 664.3 0 643 0C621.7 0 600.3 0 578.8 0C557.3 0 535.7 0 514.2 0C492.7 0 471.3 0 450 0C428.7 0 407.3 0 385.8 0C364.3 0 342.7 0 321.2 0C299.7 0 278.3 0 257 0C235.7 0 214.3 0 193 0C171.7 0 150.3 0 128.8 0C107.3 0 85.7 0 64.2 0C42.7 0 21.3 0 10.7 0L0 0Z" fill="#fcaf3c"></path><path d="M0 79L10.7 89C21.3 99 42.7 119 64.2 131C85.7 143 107.3 147 128.8 136C150.3 125 171.7 99 193 96C214.3 93 235.7 113 257 115C278.3 117 299.7 101 321.2 98C342.7 95 364.3 105 385.8 120C407.3 135 428.7 155 450 157C471.3 159 492.7 143 514.2 141C535.7 139 557.3 151 578.8 147C600.3 143 621.7 123 643 112C664.3 101 685.7 99 707 107C728.3 115 749.7 133 771.2 142C792.7 151 814.3 151 835.8 145C857.3 139 878.7 127 889.3 121L900 115L900 95L889.3 94C878.7 93 857.3 91 835.8 90C814.3 89 792.7 89 771.2 86C749.7 83 728.3 77 707 71C685.7 65 664.3 59 643 62C621.7 65 600.3 77 578.8 83C557.3 89 535.7 89 514.2 91C492.7 93 471.3 97 450 91C428.7 85 407.3 69 385.8 62C364.3 55 342.7 57 321.2 61C299.7 65 278.3 71 257 67C235.7 63 214.3 49 193 52C171.7 55 150.3 75 128.8 78C107.3 81 85.7 67 64.2 58C42.7 49 21.3 45 10.7 43L0 41Z" fill="#ff8023"></path><path d="M0 151L10.7 183C21.3 215 42.7 279 64.2 303C85.7 327 107.3 311 128.8 293C150.3 275 171.7 255 193 240C214.3 225 235.7 215 257 224C278.3 233 299.7 261 321.2 263C342.7 265 364.3 241 385.8 245C407.3 249 428.7 281 450 280C471.3 279 492.7 245 514.2 233C535.7 221 557.3 231 578.8 243C600.3 255 621.7 269 643 262C664.3 255 685.7 227 707 243C728.3 259 749.7 319 771.2 323C792.7 327 814.3 275 835.8 276C857.3 277 878.7 331 889.3 358L900 385L900 113L889.3 119C878.7 125 857.3 137 835.8 143C814.3 149 792.7 149 771.2 140C749.7 131 728.3 113 707 105C685.7 97 664.3 99 643 110C621.7 121 600.3 141 578.8 145C557.3 149 535.7 137 514.2 139C492.7 141 471.3 157 450 155C428.7 153 407.3 133 385.8 118C364.3 103 342.7 93 321.2 96C299.7 99 278.3 115 257 113C235.7 111 214.3 91 193 94C171.7 97 150.3 123 128.8 134C107.3 145 85.7 141 64.2 129C42.7 117 21.3 97 10.7 87L0 77Z" fill="#ff4026"></path><path d="M0 355L10.7 372C21.3 389 42.7 423 64.2 429C85.7 435 107.3 413 128.8 404C150.3 395 171.7 399 193 392C214.3 385 235.7 367 257 369C278.3 371 299.7 393 321.2 399C342.7 405 364.3 395 385.8 392C407.3 389 428.7 393 450 392C471.3 391 492.7 385 514.2 389C535.7 393 557.3 407 578.8 410C600.3 413 621.7 405 643 392C664.3 379 685.7 361 707 369C728.3 377 749.7 411 771.2 418C792.7 425 814.3 405 835.8 410C857.3 415 878.7 445 889.3 460L900 475L900 383L889.3 356C878.7 329 857.3 275 835.8 274C814.3 273 792.7 325 771.2 321C749.7 317 728.3 257 707 241C685.7 225 664.3 253 643 260C621.7 267 600.3 253 578.8 241C557.3 229 535.7 219 514.2 231C492.7 243 471.3 277 450 278C428.7 279 407.3 247 385.8 243C364.3 239 342.7 263 321.2 261C299.7 259 278.3 231 257 222C235.7 213 214.3 223 193 238C171.7 253 150.3 273 128.8 291C107.3 309 85.7 325 64.2 301C42.7 277 21.3 213 10.7 181L0 149Z" fill="#ff002d"></path><path d="M0 439L10.7 447C21.3 455 42.7 471 64.2 473C85.7 475 107.3 463 128.8 459C150.3 455 171.7 459 193 457C214.3 455 235.7 447 257 453C278.3 459 299.7 479 321.2 475C342.7 471 364.3 443 385.8 442C407.3 441 428.7 467 450 469C471.3 471 492.7 449 514.2 450C535.7 451 557.3 475 578.8 476C600.3 477 621.7 455 643 445C664.3 435 685.7 437 707 448C728.3 459 749.7 479 771.2 476C792.7 473 814.3 447 835.8 447C857.3 447 878.7 473 889.3 486L900 499L900 473L889.3 458C878.7 443 857.3 413 835.8 408C814.3 403 792.7 423 771.2 416C749.7 409 728.3 375 707 367C685.7 359 664.3 377 643 390C621.7 403 600.3 411 578.8 408C557.3 405 535.7 391 514.2 387C492.7 383 471.3 389 450 390C428.7 391 407.3 387 385.8 390C364.3 393 342.7 403 321.2 397C299.7 391 278.3 369 257 367C235.7 365 214.3 383 193 390C171.7 397 150.3 393 128.8 402C107.3 411 85.7 433 64.2 427C42.7 421 21.3 387 10.7 370L0 353Z" fill="#ff4026"></path><path d="M0 463L10.7 471C21.3 479 42.7 495 64.2 496C85.7 497 107.3 483 128.8 486C150.3 489 171.7 509 193 509C214.3 509 235.7 489 257 489C278.3 489 299.7 509 321.2 508C342.7 507 364.3 485 385.8 482C407.3 479 428.7 495 450 501C471.3 507 492.7 503 514.2 510C535.7 517 557.3 535 578.8 533C600.3 531 621.7 509 643 497C664.3 485 685.7 483 707 497C728.3 511 749.7 541 771.2 540C792.7 539 814.3 507 835.8 506C857.3 505 878.7 535 889.3 550L900 565L900 497L889.3 484C878.7 471 857.3 445 835.8 445C814.3 445 792.7 471 771.2 474C749.7 477 728.3 457 707 446C685.7 435 664.3 433 643 443C621.7 453 600.3 475 578.8 474C557.3 473 535.7 449 514.2 448C492.7 447 471.3 469 450 467C428.7 465 407.3 439 385.8 440C364.3 441 342.7 469 321.2 473C299.7 477 278.3 457 257 451C235.7 445 214.3 453 193 455C171.7 457 150.3 453 128.8 457C107.3 461 85.7 473 64.2 471C42.7 469 21.3 453 10.7 445L0 437Z" fill="#ff8023"></path><path d="M0 601L10.7 601C21.3 601 42.7 601 64.2 601C85.7 601 107.3 601 128.8 601C150.3 601 171.7 601 193 601C214.3 601 235.7 601 257 601C278.3 601 299.7 601 321.2 601C342.7 601 364.3 601 385.8 601C407.3 601 428.7 601 450 601C471.3 601 492.7 601 514.2 601C535.7 601 557.3 601 578.8 601C600.3 601 621.7 601 643 601C664.3 601 685.7 601 707 601C728.3 601 749.7 601 771.2 601C792.7 601 814.3 601 835.8 601C857.3 601 878.7 601 889.3 601L900 601L900 563L889.3 548C878.7 533 857.3 503 835.8 504C814.3 505 792.7 537 771.2 538C749.7 539 728.3 509 707 495C685.7 481 664.3 483 643 495C621.7 507 600.3 529 578.8 531C557.3 533 535.7 515 514.2 508C492.7 501 471.3 505 450 499C428.7 493 407.3 477 385.8 480C364.3 483 342.7 505 321.2 506C299.7 507 278.3 487 257 487C235.7 487 214.3 507 193 507C171.7 507 150.3 487 128.8 484C107.3 481 85.7 495 64.2 494C42.7 493 21.3 477 10.7 469L0 461Z" fill="#fcaf3c"></path></svg>