<svg id="visual" viewBox="0 0 900 600" width="900" height="600" xmlns="http://www.w3.org/2000/svg" xmlns:xlink="http://www.w3.org/1999/xlink" version="1.1"><path d="M0 61L10.7 55C21.3 49 42.7 37 64.2 36C85.7 35 107.3 45 128.8 44C150.3 43 171.7 31 193 28C214.3 25 235.7 31 257 34C278.3 37 299.7 37 321.2 40C342.7 43 364.3 49 385.8 48C407.3 47 428.7 39 450 34C471.3 29 492.7 27 514.2 32C535.7 37 557.3 49 578.8 53C600.3 57 621.7 53 643 54C664.3 55 685.7 61 707 60C728.3 59 749.7 51 771.2 49C792.7 47 814.3 51 835.8 49C857.3 47 878.7 39 889.3 35L900 31L900 0L889.3 0C878.7 0 857.3 0 835.8 0C814.3 0 792.7 0 771.2 0C749.7 0 728.3 0 707 0C685.7 0 664.3 0 643 0C621.7 0 600.3 0 578.8 0C557.3 0 535.7 0 514.2 0C492.7 0 471.3 0 450 0C428.7 0 407.3 0 385.8 0C364.3 0 342.7 0 321.2 0C299.7 0 278.3 0 257 0C235.7 0 214.3 0 193 0C171.7 0 150.3 0 128.8 0C107.3 0 85.7 0 64.2 0C42.7 0 21.3 0 10.7 0L0 0Z" fill="#004cbb"></path><path d="M0 85L10.7 87C21.3 89 42.7 93 64.2 100C85.7 107 107.3 117 128.8 114C150.3 111 171.7 95 193 84C214.3 73 235.7 67 257 72C278.3 77 299.7 93 321.2 105C342.7 117 364.3 125 385.8 115C407.3 105 428.7 77 450 71C471.3 65 492.7 81 514.2 92C535.7 103 557.3 109 578.8 114C600.3 119 621.7 123 643 126C664.3 129 685.7 131 707 122C728.3 113 749.7 93 771.2 93C792.7 93 814.3 113 835.8 117C857.3 121 878.7 109 889.3 103L900 97L900 29L889.3 33C878.7 37 857.3 45 835.8 47C814.3 49 792.7 45 771.2 47C749.7 49 728.3 57 707 58C685.7 59 664.3 53 643 52C621.7 51 600.3 55 578.8 51C557.3 47 535.7 35 514.2 30C492.7 25 471.3 27 450 32C428.7 37 407.3 45 385.8 46C364.3 47 342.7 41 321.2 38C299.7 35 278.3 35 257 32C235.7 29 214.3 23 193 26C171.7 29 150.3 41 128.8 42C107.3 43 85.7 33 64.2 34C42.7 35 21.3 47 10.7 53L0 59Z" fill="#0062f3"></path><path d="M0 259L10.7 242C21.3 225 42.7 191 64.2 190C85.7 189 107.3 221 128.8 246C150.3 271 171.7 289 193 274C214.3 259 235.7 211 257 220C278.3 229 299.7 295 321.2 316C342.7 337 364.3 313 385.8 292C407.3 271 428.7 253 450 254C471.3 255 492.7 275 514.2 268C535.7 261 557.3 227 578.8 238C600.3 249 621.7 305 643 310C664.3 315 685.7 269 707 250C728.3 231 749.7 239 771.2 241C792.7 243 814.3 239 835.8 230C857.3 221 878.7 207 889.3 200L900 193L900 95L889.3 101C878.7 107 857.3 119 835.8 115C814.3 111 792.7 91 771.2 91C749.7 91 728.3 111 707 120C685.7 129 664.3 127 643 124C621.7 121 600.3 117 578.8 112C557.3 107 535.7 101 514.2 90C492.7 79 471.3 63 450 69C428.7 75 407.3 103 385.8 113C364.3 123 342.7 115 321.2 103C299.7 91 278.3 75 257 70C235.7 65 214.3 71 193 82C171.7 93 150.3 109 128.8 112C107.3 115 85.7 105 64.2 98C42.7 91 21.3 87 10.7 85L0 83Z" fill="#4988ff"></path><path d="M0 385L10.7 380C21.3 375 42.7 365 64.2 375C85.7 385 107.3 415 128.8 423C150.3 431 171.7 417 193 401C214.3 385 235.7 367 257 373C278.3 379 299.7 409 321.2 418C342.7 427 364.3 415 385.8 410C407.3 405 428.7 407 450 403C471.3 399 492.7 389 514.2 396C535.7 403 557.3 427 578.8 433C600.3 439 621.7 427 643 420C664.3 413 685.7 411 707 406C728.3 401 749.7 393 771.2 390C792.7 387 814.3 389 835.8 381C857.3 373 878.7 355 889.3 346L900 337L900 191L889.3 198C878.7 205 857.3 219 835.8 228C814.3 237 792.7 241 771.2 239C749.7 237 728.3 229 707 248C685.7 267 664.3 313 643 308C621.7 303 600.3 247 578.8 236C557.3 225 535.7 259 514.2 266C492.7 273 471.3 253 450 252C428.7 251 407.3 269 385.8 290C364.3 311 342.7 335 321.2 314C299.7 293 278.3 227 257 218C235.7 209 214.3 257 193 272C171.7 287 150.3 269 128.8 244C107.3 219 85.7 187 64.2 188C42.7 189 21.3 223 10.7 240L0 257Z" fill="#6198ff"></path><path d="M0 427L10.7 427C21.3 427 42.7 427 64.2 435C85.7 443 107.3 459 128.8 462C150.3 465 171.7 455 193 450C214.3 445 235.7 445 257 450C278.3 455 299.7 465 321.2 472C342.7 479 364.3 483 385.8 477C407.3 471 428.7 455 450 447C471.3 439 492.7 439 514.2 456C535.7 473 557.3 507 578.8 516C600.3 525 621.7 509 643 491C664.3 473 685.7 453 707 445C728.3 437 749.7 441 771.2 444C792.7 447 814.3 449 835.8 445C857.3 441 878.7 431 889.3 426L900 421L900 335L889.3 344C878.7 353 857.3 371 835.8 379C814.3 387 792.7 385 771.2 388C749.7 391 728.3 399 707 404C685.7 409 664.3 411 643 418C621.7 425 600.3 437 578.8 431C557.3 425 535.7 401 514.2 394C492.7 387 471.3 397 450 401C428.7 405 407.3 403 385.8 408C364.3 413 342.7 425 321.2 416C299.7 407 278.3 377 257 371C235.7 365 214.3 383 193 399C171.7 415 150.3 429 128.8 421C107.3 413 85.7 383 64.2 373C42.7 363 21.3 373 10.7 378L0 383Z" fill="#4988ff"></path><path d="M0 499L10.7 496C21.3 493 42.7 487 64.2 497C85.7 507 107.3 533 128.8 541C150.3 549 171.7 539 193 533C214.3 527 235.7 525 257 527C278.3 529 299.7 535 321.2 533C342.7 531 364.3 521 385.8 519C407.3 517 428.7 523 450 526C471.3 529 492.7 529 514.2 535C535.7 541 557.3 553 578.8 555C600.3 557 621.7 549 643 533C664.3 517 685.7 493 707 487C728.3 481 749.7 493 771.2 496C792.7 499 814.3 493 835.8 490C857.3 487 878.7 487 889.3 487L900 487L900 419L889.3 424C878.7 429 857.3 439 835.8 443C814.3 447 792.7 445 771.2 442C749.7 439 728.3 435 707 443C685.7 451 664.3 471 643 489C621.7 507 600.3 523 578.8 514C557.3 505 535.7 471 514.2 454C492.7 437 471.3 437 450 445C428.7 453 407.3 469 385.8 475C364.3 481 342.7 477 321.2 470C299.7 463 278.3 453 257 448C235.7 443 214.3 443 193 448C171.7 453 150.3 463 128.8 460C107.3 457 85.7 441 64.2 433C42.7 425 21.3 425 10.7 425L0 425Z" fill="#0062f3"></path><path d="M0 601L10.7 601C21.3 601 42.7 601 64.2 601C85.7 601 107.3 601 128.8 601C150.3 601 171.7 601 193 601C214.3 601 235.7 601 257 601C278.3 601 299.7 601 321.2 601C342.7 601 364.3 601 385.8 601C407.3 601 428.7 601 450 601C471.3 601 492.7 601 514.2 601C535.7 601 557.3 601 578.8 601C600.3 601 621.7 601 643 601C664.3 601 685.7 601 707 601C728.3 601 749.7 601 771.2 601C792.7 601 814.3 601 835.8 601C857.3 601 878.7 601 889.3 601L900 601L900 485L889.3 485C878.7 485 857.3 485 835.8 488C814.3 491 792.7 497 771.2 494C749.7 491 728.3 479 707 485C685.7 491 664.3 515 643 531C621.7 547 600.3 555 578.8 553C557.3 551 535.7 539 514.2 533C492.7 527 471.3 527 450 524C428.7 521 407.3 515 385.8 517C364.3 519 342.7 529 321.2 531C299.7 533 278.3 527 257 525C235.7 523 214.3 525 193 531C171.7 537 150.3 547 128.8 539C107.3 531 85.7 505 64.2 495C42.7 485 21.3 491 10.7 494L0 497Z" fill="#004cbb"></path></svg>