<svg id="visual" viewBox="0 0 900 600" width="900" height="600" xmlns="http://www.w3.org/2000/svg" xmlns:xlink="http://www.w3.org/1999/xlink" version="1.1"><rect x="0" y="0" width="900" height="600" fill="#001122"></rect><path d="M446 0L461.5 9.2C477 18.3 508 36.7 522.5 54.8C537 73 535 91 522.3 109.2C509.7 127.3 486.3 145.7 475.8 163.8C465.3 182 467.7 200 474.2 218.2C480.7 236.3 491.3 254.7 477.7 272.8C464 291 426 309 408.7 327.2C391.3 345.3 394.7 363.7 394.3 381.8C394 400 390 418 412.7 436.2C435.3 454.3 484.7 472.7 497.3 490.8C510 509 486 527 486.8 545.2C487.7 563.3 513.3 581.7 526.2 590.8L539 600L0 600L0 590.8C0 581.7 0 563.3 0 545.2C0 527 0 509 0 490.8C0 472.7 0 454.3 0 436.2C0 418 0 400 0 381.8C0 363.7 0 345.3 0 327.2C0 309 0 291 0 272.8C0 254.7 0 236.3 0 218.2C0 200 0 182 0 163.8C0 145.7 0 127.3 0 109.2C0 91 0 73 0 54.8C0 36.7 0 18.3 0 9.2L0 0Z" fill="#ff004b" stroke-linecap="round" stroke-linejoin="miter"></path></svg>